<svg width="24" height="24" viewBox="0 0 24 24" fill="none" xmlns="http://www.w3.org/2000/svg"><path fill-rule="evenodd" clip-rule="evenodd" d="M11.0648 5.99923H16.9356C17.4655 5.99922 17.9166 5.99921 18.2871 6.02947C18.6762 6.06127 19.0548 6.1309 19.4168 6.31532C19.9624 6.59335 20.4061 7.03699 20.6841 7.58266C20.8685 7.94459 20.9382 8.32319 20.9699 8.71235C21.0002 9.08278 21.0002 9.53396 21.0002 10.0638V17.9346C21.0002 18.4645 21.0002 18.9157 20.9699 19.2861C20.9382 19.6753 20.8685 20.0539 20.6841 20.4158C20.4061 20.9615 19.9624 21.4051 19.4168 21.6832C19.0548 21.8676 18.6762 21.9372 18.2871 21.969C17.9166 21.9993 17.4655 21.9993 16.9356 21.9992H11.0648C10.5349 21.9993 10.0838 21.9993 9.71333 21.969C9.32416 21.9372 8.94557 21.8676 8.58364 21.6832C8.03797 21.4051 7.59432 20.9615 7.31629 20.4158C7.13188 20.0539 7.06224 19.6753 7.03045 19.2861C7.00018 18.9157 7.0002 18.4645 7.00021 17.9346V10.0638C7.0002 9.53396 7.00018 9.08278 7.03045 8.71235C7.06224 8.32319 7.13188 7.94459 7.31629 7.58266C7.59432 7.03699 8.03797 6.59335 8.58364 6.31532C8.94557 6.1309 9.32416 6.06127 9.71333 6.02947C10.0838 5.99921 10.5349 5.99922 11.0648 5.99923ZM9.8599 7.82349C9.58206 7.84619 9.46671 7.88555 9.40082 7.91913C9.19384 8.02459 9.02556 8.19287 8.9201 8.39984C8.88653 8.46574 8.84717 8.58108 8.82447 8.85893C8.80091 9.14728 8.80021 9.52433 8.80021 10.0992V17.8992C8.80021 18.4741 8.80091 18.8512 8.82447 19.1395C8.84717 19.4174 8.88653 19.5327 8.9201 19.5986C9.02556 19.8056 9.19384 19.9739 9.40082 20.0793C9.46671 20.1129 9.58206 20.1523 9.8599 20.175C10.1483 20.1985 10.5253 20.1992 11.1002 20.1992H16.9002C17.4751 20.1992 17.8521 20.1985 18.1405 20.175C18.4183 20.1523 18.5337 20.1129 18.5996 20.0793C18.8066 19.9739 18.9748 19.8056 19.0803 19.5986C19.1139 19.5327 19.1532 19.4174 19.1759 19.1395C19.1995 18.8512 19.2002 18.4741 19.2002 17.8992V10.0992C19.2002 9.52433 19.1995 9.14728 19.1759 8.85893C19.1532 8.58108 19.1139 8.46574 19.0803 8.39984C18.9748 8.19287 18.8066 8.02459 18.5996 7.91913C18.5337 7.88555 18.4183 7.84619 18.1405 7.82349C17.8521 7.79993 17.4751 7.79923 16.9002 7.79923H11.1002C10.5253 7.79923 10.1483 7.79993 9.8599 7.82349Z" fill="#dee1e9"></path><path fill-rule="evenodd" clip-rule="evenodd" d="M11.2126 3.99922H10.5002C9.36524 3.99922 8.56815 3.99992 7.9463 4.05073C7.33494 4.10068 6.97263 4.19454 6.69283 4.3371C6.10953 4.63431 5.63529 5.10855 5.33808 5.69185C5.19551 5.97165 5.10166 6.33397 5.05171 6.94532C5.0009 7.56718 5.0002 8.36427 5.0002 9.49922V10.1797C5.00018 10.2516 5.00018 10.3248 5.00018 10.3992V17.9849C4.99007 17.9842 4.98005 17.9834 4.97011 17.9826C4.7477 17.9644 4.49259 17.9221 4.23762 17.7921C3.88011 17.61 3.58945 17.3193 3.40729 16.9618C3.27737 16.7068 3.23498 16.4517 3.21681 16.2293C3.20015 16.0253 3.20017 15.7833 3.2002 15.529L3.2002 9.46027C3.20019 8.3732 3.20018 7.50251 3.25768 6.79874C3.31673 6.07608 3.44086 5.45051 3.73427 4.87467C4.20405 3.95267 4.95365 3.20307 5.87565 2.73329C6.45149 2.43988 7.07705 2.31575 7.79972 2.25671C8.50349 2.19921 9.37417 2.19921 10.4612 2.19922L14.53 2.19922C14.7843 2.1992 15.0263 2.19917 15.2303 2.21584C15.4527 2.23401 15.7078 2.27639 15.9628 2.40631C16.3203 2.58847 16.611 2.87913 16.7931 3.23664C16.923 3.49162 16.9654 3.74673 16.9836 3.96914C16.9844 3.97907 16.9852 3.9891 16.9859 3.99921H11.4002C11.3368 3.99921 11.2742 3.99921 11.2126 3.99922Z" fill="#dee1e9"></path></svg>