<svg xmlns="http://www.w3.org/2000/svg" width="24" height="24" viewBox="0 0 24 24" fill="none"><path fill-rule="evenodd" clip-rule="evenodd" d="M6.25609 9.09664C6.70464 6.20858 9.18074 3.9001 12 3.9001C14.8192 3.9001 17.2953 6.20858 17.7439 9.09664C17.8778 9.95902 17.995 10.8319 18.0559 11.8131C18.1171 12.8007 18.2441 14.0436 18.9766 15.0778L19.0142 15.1305C19.2811 15.5019 19.331 15.9254 19.242 16.2302C19.1625 16.5026 18.9813 16.6858 18.6546 16.7274C17.0921 16.9265 14.8986 17.1001 12 17.1001C9.10141 17.1001 6.90792 16.9265 5.34539 16.7274C5.01868 16.6858 4.83747 16.5026 4.75797 16.2302C4.66901 15.9254 4.71891 15.5019 4.98577 15.1305L5.02334 15.0778C5.75592 14.0436 5.88289 12.8007 5.94412 11.8131C6.00495 10.8319 6.12216 9.95902 6.25609 9.09664ZM12 2.1001C8.19182 2.1001 5.04598 5.15956 4.47742 8.8204C4.33953 9.7082 4.21326 10.6421 4.14757 11.7017C4.08649 12.6871 3.96448 13.4586 3.55448 14.0374L3.52398 14.0802C2.9521 14.8761 2.77745 15.8692 3.03009 16.7346C3.29218 17.6324 4.01873 18.373 5.1179 18.513C5.84653 18.6058 6.69874 18.6925 7.68095 18.7602C8.0877 20.6311 9.96957 21.9 12 21.9C14.0305 21.9 15.9123 20.6311 16.3191 18.7602C17.3013 18.6925 18.1535 18.6058 18.8821 18.513C19.9812 18.373 20.7078 17.6324 20.9699 16.7346C21.2225 15.8692 21.0479 14.8761 20.476 14.0802L20.4455 14.0374C20.0355 13.4586 19.9135 12.6871 19.8524 11.7017C19.7867 10.6421 19.6604 9.7082 19.5226 8.8204C18.954 5.15956 15.8082 2.1001 12 2.1001ZM14.3642 18.8604C13.6316 18.8857 12.8441 18.9001 12 18.9001C11.1559 18.9001 10.3684 18.8857 9.63587 18.8604C10.0253 19.552 10.8732 20.1 12 20.1C13.1268 20.1 13.9747 19.552 14.3642 18.8604Z" fill="#898B8F"></path></svg>