<svg xmlns="http://www.w3.org/2000/svg" width="24" height="24" viewBox="0 0 24 24" fill="none" class="SearchInput_searchIcon__0MDRv"><path fill-rule="evenodd" clip-rule="evenodd" d="M11.0001 3.9001C7.07888 3.9001 3.9001 7.07888 3.9001 11.0001C3.9001 14.9213 7.07888 18.1001 11.0001 18.1001C12.9158 18.1001 14.6543 17.3414 15.9314 16.1081C15.9563 16.0752 15.9837 16.0437 16.0137 16.0137C16.0437 15.9837 16.0752 15.9563 16.1081 15.9314C17.3414 14.6543 18.1001 12.9158 18.1001 11.0001C18.1001 7.07888 14.9213 3.9001 11.0001 3.9001ZM17.8977 16.6249C19.1494 15.0918 19.9001 13.1336 19.9001 11.0001C19.9001 6.08476 15.9154 2.1001 11.0001 2.1001C6.08476 2.1001 2.1001 6.08476 2.1001 11.0001C2.1001 15.9154 6.08476 19.9001 11.0001 19.9001C13.1336 19.9001 15.0918 19.1494 16.6249 17.8977L20.3637 21.6365C20.7152 21.988 21.285 21.988 21.6365 21.6365C21.988 21.285 21.988 20.7152 21.6365 20.3637L17.8977 16.6249Z" fill="#898B8F"></path></svg>