<svg xmlns="http://www.w3.org/2000/svg" width="24" height="24" viewBox="0 0 24 24" fill="none" class="TransactionHistoryTable_typeIcon__UHlA2"><path fill-rule="evenodd" clip-rule="evenodd" d="M17.3636 3.3636C17.7151 3.01213 18.2849 3.01213 18.6364 3.3636L21.6364 6.3636C21.9879 6.71507 21.9879 7.28492 21.6364 7.63639L18.6364 10.6364C18.2849 10.9879 17.7151 10.9879 17.3636 10.6364C17.0121 10.2849 17.0121 9.71507 17.3636 9.3636L18.8272 7.9H3.00001C2.50295 7.9 2.10001 7.49706 2.10001 7C2.10001 6.50294 2.50295 6.1 3.00001 6.1H18.8272L17.3636 4.63639C17.0121 4.28492 17.0121 3.71507 17.3636 3.3636ZM6.6364 13.3636C6.98787 13.7151 6.98787 14.2849 6.6364 14.6364L5.1728 16.1H21C21.4971 16.1 21.9 16.5029 21.9 17C21.9 17.4971 21.4971 17.9 21 17.9H5.1728L6.6364 19.3636C6.98787 19.7151 6.98787 20.2849 6.6364 20.6364C6.28493 20.9879 5.71508 20.9879 5.36361 20.6364L2.36361 17.6364C2.01214 17.2849 2.01214 16.7151 2.36361 16.3636L5.36361 13.3636C5.71508 13.0121 6.28493 13.0121 6.6364 13.3636Z" fill="#dee1e9"></path></svg>